<svg xmlns="http://www.w3.org/2000/svg" viewBox="0 0 167.8 180.22"><defs><style>.cls-1{fill:#fff;}</style></defs><title>ag_logoAsset 9</title><g id="Layer_2" data-name="Layer 2"><g id="Layer_1-2" data-name="Layer 1"><polygon class="cls-1" points="10.07 102.72 25.43 102.72 59.6 20.7 93.85 102.72 109.35 102.72 65.85 0 53.36 0 10.07 102.72"/><path class="cls-1" d="M117.92,102.83h24.76a38.74,38.74,0,0,1-8.57,16.38q-11.19,12-26.09,12a34.89,34.89,0,0,1-23.42-9Q72,109.93,72,93.27a38.26,38.26,0,0,1,2.81-14.49l-6.61-16a50.91,50.91,0,0,0-9.7,30.34v.27q0,22.08,16.45,38.32,14.84,13.1,33,13.08a48.87,48.87,0,0,0,41.41-23.27q4.78-7.09,7.11-18,.84-3.37,1.33-14.13l-.21-.21H144.79l-32.46.07Z"/><path class="cls-1" d="M108,55.36a34,34,0,0,1,19.55,6.33q2.18,1.2,6.54,5.77a34.8,34.8,0,0,1,5.27,7.66q1.89-.84,12.09-6.18l-.77-1.55a53,53,0,0,0-8.09-10.76q-15-14.76-34.59-14.76h-.21a47,47,0,0,0-14.4,2.21l5.33,12.53A34.2,34.2,0,0,1,108,55.36Z"/><path class="cls-1" d="M16.14,180.22H13.63s-.39-.88-1.08-2.6l-4.47-11h0L2.62,180c0,.13-.08.2-.1.2H0l6.9-16.72c.07-.21.12-.33.15-.34h2s.12.18.23.51q4.86,11.68,5.12,12.41.13.23,1.71,4.14Z"/><path class="cls-1" d="M30.56,163.15h0a8,8,0,0,1,5.74,2.45,9.13,9.13,0,0,1,1.34,1.79l.12.25c-1.12.59-1.79.93-2,1a5.65,5.65,0,0,0-.87-1.27,6,6,0,0,0-4.33-2,5.83,5.83,0,0,0-4.61,2.3,6.58,6.58,0,0,0-1.37,4,6.46,6.46,0,0,0,2.1,4.79,5.76,5.76,0,0,0,8.21-.49,6.5,6.5,0,0,0,1.42-2.72H32.05l0,0v-2.17l0,0v0H38.8l0,0a15.08,15.08,0,0,1-.22,2.35,8.48,8.48,0,0,1-1.18,3,8.11,8.11,0,0,1-6.86,3.86,8.05,8.05,0,0,1-5.47-2.17,8.62,8.62,0,0,1-2.73-6.35v0a8.69,8.69,0,0,1,2.71-6.32,8.38,8.38,0,0,1,5.48-2.18Z"/><path class="cls-1" d="M57.6,163.15h5.64A5.46,5.46,0,0,1,67.56,165a4,4,0,0,1,.87,2.57v.24a4.33,4.33,0,0,1-1.49,3.31v0a4.25,4.25,0,0,1,.93.74A4,4,0,0,1,69,174.65v.84A4.62,4.62,0,0,1,65.45,180a6.5,6.5,0,0,1-2.08.26H57.6l0,0v-17Zm2.2,9.32V178h3.88a3,3,0,0,0,2.82-1.47,2.83,2.83,0,0,0,.24-1.24v-.41a2.08,2.08,0,0,0-1.57-2.08,4.6,4.6,0,0,0-1.85-.33H59.84Zm0-7.08v4.8h3.25a3.09,3.09,0,0,0,2.9-1.45,1.93,1.93,0,0,0,.2-.81v-.52c0-.86-.6-1.47-1.8-1.85a5.12,5.12,0,0,0-1.48-.17Z"/><path class="cls-1" d="M76.8,163.15H86l0,0v2.23H79v5.17h5.5v2.23H79V178H86v2.24H76.79V163.15Z"/><path class="cls-1" d="M108.55,180.22H106s-.38-.88-1.07-2.6l-4.48-11h0L95,180c0,.13-.08.2-.11.2H92.41l6.9-16.72c.07-.21.12-.33.15-.34h2a1.71,1.71,0,0,1,.23.51q4.84,11.68,5.12,12.41.12.23,1.71,4.14Z"/><path class="cls-1" d="M115.74,163.15h2.17l0,0v10.38a4.8,4.8,0,0,0,.64,2.78,3.42,3.42,0,0,0,2,1.48,4.5,4.5,0,0,0,1,.13h1.67a3.45,3.45,0,0,0,3.09-1.81,4.89,4.89,0,0,0,.5-2.26v-10.7l0,0H129l0,0v10.12a8.59,8.59,0,0,1-.36,2.93,5.89,5.89,0,0,1-2.33,3.07,6.2,6.2,0,0,1-3.43.91h-1.12a5.82,5.82,0,0,1-4.28-1.6,6.07,6.07,0,0,1-1.08-1.42,6.9,6.9,0,0,1-.76-3.18V163.19Z"/><path class="cls-1" d="M136,163.15h11.3l0,0v2.22h-4.54v14.81h-2.26V165.4H136v-2.24Z"/><path class="cls-1" d="M152.6,163.15h2.86c.09.09.87,1.18,2.35,3.27l2.41,3.33c3-4.2,4.56-6.4,4.73-6.6h2.85v0L161.39,172v8.19l0,0h-2.31l0,0V172a9.38,9.38,0,0,0-.75-1.09l-5.66-7.75Z"/></g></g></svg>