<svg xmlns="http://www.w3.org/2000/svg" viewBox="0 0 416.34 144.8"><title>ag_logoAsset 5</title><g id="Layer_2" data-name="Layer 2"><g id="Layer_1-2" data-name="Layer 1"><polygon points="0 102.72 15.36 102.72 49.53 20.7 83.78 102.72 99.28 102.72 55.78 0 43.29 0 0 102.72"/><path d="M107.85,102.83h24.76A38.74,38.74,0,0,1,124,119.21q-11.19,12-26.09,12a34.89,34.89,0,0,1-23.42-9q-12.65-12.24-12.65-28.9a38.26,38.26,0,0,1,2.81-14.49l-6.61-16a50.91,50.91,0,0,0-9.7,30.34v.27q0,22.08,16.45,38.32,14.83,13.1,33,13.08a48.87,48.87,0,0,0,41.41-23.27q4.78-7.09,7.1-18,.85-3.37,1.34-14.13l-.21-.21H134.72l-32.46.07Z"/><path d="M98,55.36a34,34,0,0,1,19.55,6.33q2.18,1.2,6.54,5.77a34.8,34.8,0,0,1,5.27,7.66q1.89-.84,12.09-6.18l-.77-1.55a53,53,0,0,0-8.09-10.76Q117.57,41.87,98,41.87h-.21a47,47,0,0,0-14.4,2.21l5.33,12.53A34.2,34.2,0,0,1,98,55.36Z"/><path d="M206.1,84.23h-3.49s-.53-1.22-1.48-3.6l-6.21-15.29h0L187.36,84c-.07.19-.11.28-.15.28h-3.45l0,0h0L193.29,61c.1-.3.17-.45.21-.46h2.81c.05,0,.16.24.32.69q6.72,16.2,7.1,17.21.18.3,2.37,5.73Z"/><path d="M226.08,60.58h0a11,11,0,0,1,8,3.39,12,12,0,0,1,1.86,2.47l.18.36c-1.57.81-2.49,1.29-2.78,1.42a8.18,8.18,0,0,0-1.21-1.76,7.5,7.5,0,0,0-1.51-1.33,7.79,7.79,0,0,0-4.49-1.45,8.1,8.1,0,0,0-6.4,3.18,9.09,9.09,0,0,0-1.89,5.53A8.94,8.94,0,0,0,220.75,79a8,8,0,0,0,11.38-.68,9,9,0,0,0,2-3.77h-5.95l0,0v-3h0v0l6.45,0h2.93l0,0a20.3,20.3,0,0,1-.3,3.25,11.74,11.74,0,0,1-1.64,4.13,11.19,11.19,0,0,1-9.51,5.35,11.16,11.16,0,0,1-7.58-3,12,12,0,0,1-3.78-8.8v-.07a11.54,11.54,0,0,1,4.88-9.66A10.81,10.81,0,0,1,226.08,60.58Z"/><path d="M263.57,60.58h7.82a7.59,7.59,0,0,1,6,2.53,5.58,5.58,0,0,1,1.19,3.56V67a6,6,0,0,1-2.07,4.58v0a5.46,5.46,0,0,1,1.29,1,5.55,5.55,0,0,1,1.54,3.85v1.16a6.4,6.4,0,0,1-4.88,6.2,9,9,0,0,1-2.89.36h-8l-.05,0V60.62Zm3.05,12.9V81.1H272a4.08,4.08,0,0,0,3.91-2,3.89,3.89,0,0,0,.33-1.71v-.57a2.89,2.89,0,0,0-2.17-2.89,6.5,6.5,0,0,0-2.57-.45h-4.83Zm0-9.8v6.65h4.5a4.28,4.28,0,0,0,4-2,2.62,2.62,0,0,0,.27-1.11v-.73c0-1.18-.83-2-2.49-2.57a7.23,7.23,0,0,0-2.05-.22Z"/><path d="M290.19,60.58h12.72v3.1h-9.62v7.16h7.61l0,0v3.07h-7.63v7.16h9.62v3.1l0,0h-12.7V60.59Z"/><path d="M334.2,84.23h-3.49s-.53-1.22-1.49-3.6L323,65.34h0L315.46,84c-.07.19-.12.28-.15.28h-3.46v0h0L321.39,61c.09-.3.16-.45.21-.46h2.81s.16.24.32.69q6.72,16.2,7.09,17.21.18.3,2.38,5.73Z"/><path d="M344.16,60.58h3l0,0V75a6.72,6.72,0,0,0,.88,3.85,4.75,4.75,0,0,0,2.72,2,5.77,5.77,0,0,0,1.39.18h2.31a4.76,4.76,0,0,0,4.28-2.51,6.75,6.75,0,0,0,.69-3.13V60.62l.05,0h3l.05,0v14a12.06,12.06,0,0,1-.5,4.07A8.14,8.14,0,0,1,358.9,83a8.61,8.61,0,0,1-4.75,1.26H352.6A8.08,8.08,0,0,1,346.67,82a8.4,8.4,0,0,1-1.51-2,9.55,9.55,0,0,1-1.05-4.41v-15Z"/><path d="M372.24,60.58h15.69v3.09h-6.29V84.23h-3.11V63.69h-6.29V60.59Z"/><path d="M395.27,60.58h4q.18.16,3.26,4.52l3.33,4.62Q412,61,412.38,60.58h4l-8.89,12.23V84.18l0,0h-3.2l0,0V72.86a11.13,11.13,0,0,0-1.05-1.52l-7.84-10.75Z"/></g></g></svg>